#!OML:ASF \\Waltz\H\Terrain\Patient Classification 1\Animal2\Wednesday\Animal2.ASF
:FULLY-SPECIFIED
:DEGREES
1993
root 14.7624 16.4595 -16.3138 14.7642 -12.5772 -5.942
lowerback 22.7126 -1.07186 1.86099
upperback 1.02704 -1.04787 -0.854719
thorax -11.6666 -0.623046 -1.68466
lowerneck 5.52336 8.67937 13.0012
upperneck -26.341 9.21813 -21.6417
head -6.92221 5.38499 -10.2428
rclavicle 1.78906e-014 -6.36111e-015
rhumerus -33.5871 0.22502 -82.3185
rradius 134.142
rwrist 23.456
rhand -48.5424 41.7352
rfingers 7.12502
rthumb -21.1895 12.8733
lclavicle 1.78906e-014 -6.36111e-015
lhumerus -34.9207 -4.53455 74.1222
lradius 133.145
lwrist 17.7989
lhand -50.5178 13.502
lfingers 7.12502
lthumb -23.086 42.139
rfemur -53.7686 -31.7682 14.2838
rtibia 82.7861
rfoot -6.33424 -4.8665
rtoes 30.0548
lfemur -46.0215 21.737 -14.274
ltibia 64.4504
lfoot -24.4521 -2.48624
ltoes -23.4606
1994
root 14.7713 16.384 -16.3497 15.0735 -12.139 -5.96373
lowerback 23.1392 -1.19906 1.85268
upperback 1.21888 -1.21095 -0.866134
thorax -11.6907 -0.696768 -1.63696
lowerneck 5.56085 8.54812 13.177
upperneck -26.3533 9.02642 -21.8128
head -6.94546 5.29605 -10.3431
rclavicle -5.96354e-015 -1.51076e-014
rhumerus -33.5436 0.390738 -83.9358
rradius 134.446
rwrist 22.8466
rhand -49.2392 41.691
rfingers 7.12502
rthumb -21.8588 12.9056
lclavicle -5.96354e-015 -1.51076e-014
lhumerus -32.8862 -5.97688 75.1877
lradius 132.568
lwrist 17.2005
lhand -50.3081 13.1608
lfingers 7.12502
lthumb -22.8848 41.8228
rfemur -55.4572 -31.1293 14.3316
rtibia 84.482
rfoot -7.43529 -3.12387
rtoes 36.4319
lfemur -47.2188 21.4251 -14.3766
ltibia 65.4189
lfoot -24.7207 -2.47362
ltoes -23.7034
1995
root 14.7789 16.3123 -16.3873 15.3063 -11.8057 -5.89699
lowerback 23.6104 -1.35586 1.68078
upperback 1.42402 -1.45407 -0.871401
thorax -11.7219 -0.798149 -1.46003
lowerneck 5.90385 8.47661 13.0465
upperneck -26.653 8.91103 -21.8144
head -7.13767 5.2675 -10.3806
rclavicle -4.77083e-015 9.54166e-015
rhumerus -33.334 1.08172 -85.4598
rradius 134.656
rwrist 22.2914
rhand -50.0765 41.6352
rfingers 7.12502
rthumb -22.6625 12.9459
lclavicle -4.77083e-015 9.54166e-015
lhumerus -31.1397 -7.27831 76.2858
lradius 132.176
lwrist 15.7993
lhand -50.3427 13.7982
lfingers 7.12502
lthumb -22.918 42.4561
rfemur -57.1907 -30.5548 14.5052
rtibia 85.9816
rfoot -7.97527 -1.80639
rtoes 37.8008
lfemur -48.2957 21.2244 -14.5818
ltibia 66.3816
lfoot -24.9733 -2.38749
ltoes -24.1405
1996
root 14.7842 16.2491 -16.4233 15.5633 -11.6321 -5.80729
lowerback 23.9466 -1.45191 1.35781
upperback 1.68846 -1.65621 -0.837826
thorax -11.6011 -0.870593 -1.1667
lowerneck 6.23886 8.44215 12.8365
upperneck -26.9732 8.81782 -21.8778
head -7.33165 5.26359 -10.4284
rclavicle 4.77083e-015 -4.77083e-015
rhumerus -32.9017 2.19227 -86.7052
rradius 134.786
rwrist 21.5698
rhand -50.9569 41.9405
rfingers 7.12502
rthumb -23.5073 13.3568
lclavicle 4.77083e-015 -4.77083e-015
lhumerus -29.2927 -8.30121 77.1885
lradius 131.806
lwrist 14.3626
lhand -50.4169 14.1933
lfingers 7.12502
lthumb -22.9892 42.8424
rfemur -59.2849 -29.8917 14.9002
rtibia 87.2657
rfoot -7.81279 -1.49704
rtoes 33.3379
lfemur -49.323 21.1355 -14.8631
ltibia 67.2338
lfoot -25.1422 -2.02669
ltoes -25.1344
1997
root 14.7815 16.1874 -16.4598 15.9548 -11.5274 -5.88566
lowerback 24.1388 -1.48418 1.04034
upperback 1.92871 -1.76766 -0.734295
thorax -11.4215 -0.900761 -0.8301
lowerneck 6.83342 8.38896 12.7466
upperneck -27.4514 8.70237 -22.0547
head -7.61631 5.2593 -10.5775
rclavicle 1.90833e-014 -1.27222e-014
rhumerus -32.4794 3.69997 -87.8405
rradius 134.766
rwrist 21.0522
rhand -52.2953 42.3107
rfingers 7.12502
rthumb -24.7905 13.8975
lclavicle 1.90833e-014 -1.27222e-014
lhumerus -27.7399 -9.07888 77.9194
lradius 131.733
lwrist 13.2018
lhand -50.4165 13.5742
lfingers 7.12502
lthumb -22.9888 42.2234
rfemur -61.4586 -28.9493 15.5695
rtibia 88.2929
rfoot -8.11971 -0.925094
rtoes 28.4394
lfemur -50.4161 21.1177 -14.9595
ltibia 68.0262
lfoot -25.317 -2.00016
ltoes -24.7537
1998
root 14.7758 16.1219 -16.5006 16.3278 -11.3467 -6.06365
lowerback 24.4165 -1.5476 0.808961
upperback 2.14002 -1.89156 -0.590657
thorax -11.321 -0.941087 -0.491926
lowerneck 7.49943 8.3292 12.6515
upperneck -27.8354 8.6091 -22.1499
head -7.88932 5.26013 -10.6939
rclavicle 1.43125e-014 -1.03368e-014
rhumerus -32.0259 5.36595 -88.7722
rradius 134.487
rwrist 20.7639
rhand -53.779 43.417
rfingers 7.12502
rthumb -26.2117 15.207
lclavicle 1.43125e-014 -1.03368e-014
lhumerus -26.44 -9.68142 78.556
lradius 131.76
lwrist 12.0418
lhand -50.3241 12.4246
lfingers 7.12502
lthumb -22.9002 41.0847
rfemur -63.3037 -27.879 16.2551
rtibia 89.0521
rfoot -9.06626 0.209561
rtoes 25.6783
lfemur -51.5128 21.1267 -14.9059
ltibia 68.8573
lfoot -25.5797 -2.51543
ltoes -22.5613
1999
root 14.7734 16.0505 -16.5407 16.604 -11.0922 -6.12733
lowerback 24.834 -1.6826 0.618229
upperback 2.27998 -2.10614 -0.521001
thorax -11.3804 -1.02746 -0.224431
lowerneck 7.85934 8.3002 12.7997
upperneck -27.5508 8.62616 -22.3088
head -7.83919 5.28692 -10.7769
rclavicle 3.97569e-015 1.59028e-015
rhumerus -31.6681 6.73823 -89.4387
rradius 134.22
rwrist 20.6161
rhand -53.8398 44.0026
rfingers 7.12502
rthumb -26.27 15.8013
lclavicle 3.97569e-015 1.59028e-015
lhumerus -25.0061 -10.0776 78.7326
lradius 131.456
lwrist 10.997
lhand -50.4402 11.4119
lfingers 7.12502
lthumb -23.0115 40.0582
rfemur -64.9116 -26.9096 16.6657
rtibia 89.6393
rfoot -9.91116 1.33751
rtoes 24.2729
lfemur -52.5888 21.0643 -14.9662
ltibia 69.7544
lfoot -25.8314 -2.89624
ltoes -20.8631
2000
root 14.7662 15.9771 -16.5737 16.8703 -10.8291 -6.29397
lowerback 25.2162 -1.81732 0.534552
upperback 2.44661 -2.29327 -0.462943
thorax -11.3915 -1.10683 -0.0401875
lowerneck 7.93149 8.33715 13.0075
upperneck -26.9427 8.77585 -22.3799
head -7.60332 5.35346 -10.7771
rclavicle -2.62396e-014 0
rhumerus -31.3381 8.07636 -90.0554
rradius 134.094
rwrist 20.6889
rhand -53.28 43.2962
rfingers 7.12502
rthumb -25.7339 15.0162
lclavicle -2.62396e-014 0
lhumerus -23.7337 -10.4963 78.8194
lradius 131.234
lwrist 9.65154
lhand -50.8359 10.4011
lfingers 7.12502
lthumb -23.3912 38.9996
rfemur -66.3633 -25.9415 17.1716
rtibia 90.0266
rfoot -10.5517 2.24304
rtoes 22.6933
lfemur -53.6222 21.0855 -14.8947
ltibia 70.6952
lfoot -26.0929 -2.93996
ltoes -20.5969
2001
root 14.7536 15.9056 -16.6048 17.2345 -10.5185 -6.49047
lowerback 25.4127 -1.93405 0.477136
upperback 2.71056 -2.44856 -0.390414
thorax -11.1903 -1.17401 0.128013
lowerneck 7.88005 8.41579 12.9762
upperneck -26.4798 8.96457 -22.2252
head -7.41856 5.43411 -10.6589
rclavicle 2.78299e-014 -1.90833e-014
rhumerus -30.7199 9.43214 -90.4454
rradius 133.936
rwrist 20.9723
rhand -53.1052 42.2448
rfingers 7.12502
rthumb -25.5666 13.9406
lclavicle 2.78299e-014 -1.90833e-014
lhumerus -22.4388 -10.8328 78.9808
lradius 131.285
lwrist 8.55835
lhand -50.8946 8.53962
lfingers 7.12502
lthumb -23.4475 37.1309
rfemur -67.7865 -24.9481 17.7758
rtibia 90.1917
rfoot -11.0761 2.94441
rtoes 20.5579
lfemur -54.7439 21.1209 -14.7954
ltibia 71.618
lfoot -26.3657 -3.0357
ltoes -20.1397
2002
root 14.7381 15.8346 -16.6388 17.6762 -10.1078 -6.63101
lowerback 25.6157 -2.06381 0.457276
upperback 2.87215 -2.60919 -0.310997
thorax -11.1097 -1.24468 0.28657
lowerneck 8.03974 8.41509 12.8942
upperneck -26.0045 9.05504 -22.0515
head -7.29652 5.47662 -10.5443
rclavicle 1.74931e-014 1.11319e-014
rhumerus -30.2012 10.5732 -90.6502
rradius 133.713
rwrist 21.4264
rhand -52.2015 41.2359
rfingers 7.12502
rthumb -24.7007 12.8104
lclavicle 1.74931e-014 1.11319e-014
lhumerus -21.1677 -10.8513 78.9563
lradius 131.466
lwrist 8.77248
lhand -50.6458 5.71835
lfingers 7.12502
lthumb -23.2088 34.34
rfemur -69.1612 -23.981 18.3322
rtibia 90.1638
rfoot -11.6631 3.43887
rtoes 17.9299
lfemur -56.0075 21.0679 -14.7531
ltibia 72.4895
lfoot -26.5694 -3.293
ltoes -19.4299
2003
root 14.7176 15.7667 -16.6696 18.0423 -9.74746 -6.78452
lowerback 25.8945 -2.12071 0.378617
upperback 3.02071 -2.68642 -0.189314
thorax -11.0779 -1.27292 0.500809
lowerneck 8.12005 8.36322 12.9048
upperneck -25.3462 9.07824 -21.9704
head -7.10164 5.48326 -10.4566
rclavicle 2.06736e-014 6.36111e-015
rhumerus -29.8339 11.5628 -90.7444
rradius 133.431
rwrist 22.1848
rhand -50.8282 41.15
rfingers 7.12502
rthumb -23.3838 12.5505
lclavicle 2.06736e-014 6.36111e-015
lhumerus -20.3974 -12.0792 79.4476
lradius 131.079
lwrist 3.90489
lhand -50.8912 10.1418
lfingers 7.12502
lthumb -23.4442 38.7335
rfemur -70.2828 -22.9962 18.8342
rtibia 89.9348
rfoot -12.136 3.92734
rtoes 15.5713
lfemur -57.1852 21.106 -14.668
ltibia 73.3399
lfoot -26.7286 -3.28693
ltoes -20.3487
